<svg xmlns="http://www.w3.org/2000/svg" style="display: none;">
  <!-- Dashboard -->
  <symbol id="dashboard" viewBox="0 0 24 24" fill="none" stroke="currentColor" stroke-width="2">
    <rect x="3" y="3" width="7" height="9"></rect>
    <rect x="14" y="3" width="7" height="5"></rect>
    <rect x="14" y="12" width="7" height="9"></rect>
    <rect x="3" y="16" width="7" height="5"></rect>
  </symbol>

  <!-- Scanner -->
  <symbol id="scanner" viewBox="0 0 24 24" fill="none" stroke="currentColor" stroke-width="2">
    <path d="M4.5 19.5h15"></path>
    <path d="M4.5 16.5h15"></path>
    <path d="M4.5 13.5h15"></path>
    <path d="M4.5 10.5h15"></path>
    <path d="M4.5 7.5h15"></path>
  </symbol>

  <!-- Search -->
  <symbol id="search" viewBox="0 0 24 24" fill="none" stroke="currentColor" stroke-width="2">
    <circle cx="11" cy="11" r="8"></circle>
    <path d="m21 21-4.35-4.35"></path>
  </symbol>

  <!-- Popular -->
  <symbol id="popular" viewBox="0 0 24 24" fill="none" stroke="currentColor" stroke-width="2">
    <polygon points="12,2 15.09,8.26 22,9.27 17,14.14 18.18,21.02 12,17.77 5.82,21.02 7,14.14 2,9.27 8.91,8.26"></polygon>
  </symbol>

  <!-- Email -->
  <symbol id="email" viewBox="0 0 24 24" fill="none" stroke="currentColor" stroke-width="2">
    <path d="M4 4h16c1.1 0 2 .9 2 2v12c0 1.1-.9 2-2 2H4c-1.1 0-2-.9-2-2V6c0-1.1.9-2 2-2z"></path>
    <polyline points="22,6 12,13 2,6"></polyline>
  </symbol>

  <!-- News -->
  <symbol id="news" viewBox="0 0 24 24" fill="none" stroke="currentColor" stroke-width="2">
    <path d="M4 22h16a2 2 0 0 0 2-2V4a2 2 0 0 0-2-2H8a2 2 0 0 0-2 2v16a2 2 0 0 1-2 2Zm0 0a2 2 0 0 1-2-2v-9c0-1.1.9-2 2-2h2"></path>
    <path d="M18 14h-8"></path>
    <path d="M15 18h-5"></path>
    <path d="M10 6h8v4h-8V6z"></path>
  </symbol>

  <!-- Finder -->
  <symbol id="finder" viewBox="0 0 24 24" fill="none" stroke="currentColor" stroke-width="2">
    <circle cx="12" cy="12" r="10"></circle>
    <polyline points="12,6 12,12 16,14"></polyline>
  </symbol>

  <!-- Filters -->
  <symbol id="filters" viewBox="0 0 24 24" fill="none" stroke="currentColor" stroke-width="2">
    <polygon points="22,3 2,3 10,12.46 10,19 14,21 14,12.46 22,3"></polygon>
  </symbol>

  <!-- Plans -->
  <symbol id="plans" viewBox="0 0 24 24" fill="none" stroke="currentColor" stroke-width="2">
    <rect x="2" y="3" width="20" height="14" rx="2" ry="2"></rect>
    <line x1="8" y1="21" x2="16" y2="21"></line>
    <line x1="12" y1="17" x2="12" y2="21"></line>
  </symbol>

  <!-- Contact -->
  <symbol id="contact" viewBox="0 0 24 24" fill="none" stroke="currentColor" stroke-width="2">
    <path d="M20 10c0 6-8 12-8 12s-8-6-8-12a8 8 0 0 1 16 0Z"></path>
    <circle cx="12" cy="10" r="3"></circle>
  </symbol>

  <!-- Portfolio -->
  <symbol id="portfolio" viewBox="0 0 24 24" fill="none" stroke="currentColor" stroke-width="2">
    <rect x="2" y="7" width="20" height="14" rx="2" ry="2"></rect>
    <path d="M16 21V5a2 2 0 0 0-2-2h-4a2 2 0 0 0-2 2v16"></path>
  </symbol>

  <!-- Watchlist -->
  <symbol id="watchlist" viewBox="0 0 24 24" fill="none" stroke="currentColor" stroke-width="2">
    <path d="M19 14c1.49-1.46 3-3.21 3-5.5A5.5 5.5 0 0 0 16.5 3c-1.76 0-3 .5-4.5 2-1.5-1.5-2.74-2-4.5-2A5.5 5.5 0 0 0 2 8.5c0 2.29 1.51 4.04 3 5.5l7 7Z"></path>
  </symbol>

  <!-- Alerts -->
  <symbol id="alerts" viewBox="0 0 24 24" fill="none" stroke="currentColor" stroke-width="2">
    <path d="M6 8a6 6 0 0 1 12 0c0 7 3 9 3 9H3s3-2 3-9"></path>
    <path d="M13.73 21a2 2 0 0 1-3.46 0"></path>
  </symbol>

  <!-- Settings -->
  <symbol id="settings" viewBox="0 0 24 24" fill="none" stroke="currentColor" stroke-width="2">
    <circle cx="12" cy="12" r="3"></circle>
    <path d="M12 1v6m0 6v6m11-7h-6m-6 0H1m11 7a4 4 0 0 1-8 0 4 4 0 0 1 8 0ZM3 12a4 4 0 0 1 8 0 4 4 0 0 1-8 0Z"></path>
  </symbol>

  <!-- Analytics -->
  <symbol id="analytics" viewBox="0 0 24 24" fill="none" stroke="currentColor" stroke-width="2">
    <path d="M3 3v18h18"></path>
    <path d="M18.7 8l-5.1 5.2-2.8-2.7L7 14.3"></path>
  </symbol>

  <!-- Trending Up -->
  <symbol id="trending-up" viewBox="0 0 24 24" fill="none" stroke="currentColor" stroke-width="2">
    <polyline points="22,7 13.5,15.5 8.5,10.5 2,17"></polyline>
    <polyline points="16,7 22,7 22,13"></polyline>
  </symbol>

  <!-- Trending Down -->
  <symbol id="trending-down" viewBox="0 0 24 24" fill="none" stroke="currentColor" stroke-width="2">
    <polyline points="22,17 13.5,8.5 8.5,13.5 2,7"></polyline>
    <polyline points="16,17 22,17 22,11"></polyline>
  </symbol>

  <!-- Activity -->
  <symbol id="activity" viewBox="0 0 24 24" fill="none" stroke="currentColor" stroke-width="2">
    <polyline points="22,12 18,12 15,21 9,3 6,12 2,12"></polyline>
  </symbol>

  <!-- Bar Chart -->
  <symbol id="bar-chart" viewBox="0 0 24 24" fill="none" stroke="currentColor" stroke-width="2">
    <line x1="12" y1="20" x2="12" y2="10"></line>
    <line x1="18" y1="20" x2="18" y2="4"></line>
    <line x1="6" y1="20" x2="6" y2="16"></line>
  </symbol>

  <!-- Pie Chart -->
  <symbol id="pie-chart" viewBox="0 0 24 24" fill="none" stroke="currentColor" stroke-width="2">
    <path d="M21.21 15.89A10 10 0 1 1 8 2.83"></path>
    <path d="M22 12A10 10 0 0 0 12 2v10Z"></path>
  </symbol>

  <!-- Grid -->
  <symbol id="grid" viewBox="0 0 24 24" fill="none" stroke="currentColor" stroke-width="2">
    <rect x="3" y="3" width="7" height="7"></rect>
    <rect x="14" y="3" width="7" height="7"></rect>
    <rect x="14" y="14" width="7" height="7"></rect>
    <rect x="3" y="14" width="7" height="7"></rect>
  </symbol>

  <!-- List -->
  <symbol id="list" viewBox="0 0 24 24" fill="none" stroke="currentColor" stroke-width="2">
    <line x1="8" y1="6" x2="21" y2="6"></line>
    <line x1="8" y1="12" x2="21" y2="12"></line>
    <line x1="8" y1="18" x2="21" y2="18"></line>
    <line x1="3" y1="6" x2="3.01" y2="6"></line>
    <line x1="3" y1="12" x2="3.01" y2="12"></line>
    <line x1="3" y1="18" x2="3.01" y2="18"></line>
  </symbol>

  <!-- Table -->
  <symbol id="table" viewBox="0 0 24 24" fill="none" stroke="currentColor" stroke-width="2">
    <path d="M9 3H5a2 2 0 0 0-2 2v4m6-6h10a2 2 0 0 1 2 2v4M9 3v18m0 0h10a2 2 0 0 0 2-2V9M9 21H5a2 2 0 0 1-2-2V9m0 0h18"></path>
  </symbol>

  <!-- Chevron Up -->
  <symbol id="chevron-up" viewBox="0 0 24 24" fill="none" stroke="currentColor" stroke-width="2">
    <polyline points="18,15 12,9 6,15"></polyline>
  </symbol>

  <!-- Chevron Down -->
  <symbol id="chevron-down" viewBox="0 0 24 24" fill="none" stroke="currentColor" stroke-width="2">
    <polyline points="6,9 12,15 18,9"></polyline>
  </symbol>

  <!-- Chevron Left -->
  <symbol id="chevron-left" viewBox="0 0 24 24" fill="none" stroke="currentColor" stroke-width="2">
    <polyline points="15,18 9,12 15,6"></polyline>
  </symbol>

  <!-- Chevron Right -->
  <symbol id="chevron-right" viewBox="0 0 24 24" fill="none" stroke="currentColor" stroke-width="2">
    <polyline points="9,18 15,12 9,6"></polyline>
  </symbol>

  <!-- Chevrons Up Down -->
  <symbol id="chevrons-up-down" viewBox="0 0 24 24" fill="none" stroke="currentColor" stroke-width="2">
    <path d="m7 15 5 5 5-5"></path>
    <path d="m7 9 5-5 5 5"></path>
  </symbol>

  <!-- Arrow Right -->
  <symbol id="arrow-right" viewBox="0 0 24 24" fill="none" stroke="currentColor" stroke-width="2">
    <path d="M5 12h14"></path>
    <path d="m12 5 7 7-7 7"></path>
  </symbol>

  <!-- Plus -->
  <symbol id="plus" viewBox="0 0 24 24" fill="none" stroke="currentColor" stroke-width="2">
    <path d="M5 12h14"></path>
    <path d="M12 5v14"></path>
  </symbol>

  <!-- Minus -->
  <symbol id="minus" viewBox="0 0 24 24" fill="none" stroke="currentColor" stroke-width="2">
    <path d="M5 12h14"></path>
  </symbol>

  <!-- X -->
  <symbol id="x" viewBox="0 0 24 24" fill="none" stroke="currentColor" stroke-width="2">
    <path d="M18 6 6 18"></path>
    <path d="m6 6 12 12"></path>
  </symbol>

  <!-- Close -->
  <symbol id="close" viewBox="0 0 24 24" fill="none" stroke="currentColor" stroke-width="2">
    <path d="M18 6 6 18"></path>
    <path d="m6 6 12 12"></path>
  </symbol>

  <!-- Refresh -->
  <symbol id="refresh" viewBox="0 0 24 24" fill="none" stroke="currentColor" stroke-width="2">
    <path d="M3 12a9 9 0 0 1 9-9 9.75 9.75 0 0 1 6.74 2.74L21 8"></path>
    <path d="M21 3v5h-5"></path>
    <path d="M21 12a9 9 0 0 1-9 9 9.75 9.75 0 0 1-6.74-2.74L3 16"></path>
    <path d="M8 16H3v5"></path>
  </symbol>

  <!-- Download -->
  <symbol id="download" viewBox="0 0 24 24" fill="none" stroke="currentColor" stroke-width="2">
    <path d="M21 15v4a2 2 0 0 1-2 2H5a2 2 0 0 1-2-2v-4"></path>
    <polyline points="7,10 12,15 17,10"></polyline>
    <line x1="12" y1="15" x2="12" y2="3"></line>
  </symbol>

  <!-- Save -->
  <symbol id="save" viewBox="0 0 24 24" fill="none" stroke="currentColor" stroke-width="2">
    <path d="M19 21H5a2 2 0 0 1-2-2V5a2 2 0 0 1 2-2h11l5 5v11a2 2 0 0 1-2 2z"></path>
    <polyline points="17,21 17,13 7,13 7,21"></polyline>
    <polyline points="7,3 7,8 15,8"></polyline>
  </symbol>

  <!-- Bookmark -->
  <symbol id="bookmark" viewBox="0 0 24 24" fill="none" stroke="currentColor" stroke-width="2">
    <path d="M19 21l-7-5-7 5V5a2 2 0 0 1 2-2h10a2 2 0 0 1 2 2z"></path>
  </symbol>

  <!-- Share -->
  <symbol id="share" viewBox="0 0 24 24" fill="none" stroke="currentColor" stroke-width="2">
    <circle cx="18" cy="5" r="3"></circle>
    <circle cx="6" cy="12" r="3"></circle>
    <circle cx="18" cy="19" r="3"></circle>
    <line x1="8.59" y1="13.51" x2="15.42" y2="17.49"></line>
    <line x1="15.41" y1="6.51" x2="8.59" y2="10.49"></line>
  </symbol>

  <!-- Heart -->
  <symbol id="heart" viewBox="0 0 24 24" fill="none" stroke="currentColor" stroke-width="2">
    <path d="M20.84 4.61a5.5 5.5 0 0 0-7.78 0L12 5.67l-1.06-1.06a5.5 5.5 0 0 0-7.78 7.78l1.06 1.06L12 21.23l7.78-7.78 1.06-1.06a5.5 5.5 0 0 0 0-7.78z"></path>
  </symbol>

  <!-- Eye -->
  <symbol id="eye" viewBox="0 0 24 24" fill="none" stroke="currentColor" stroke-width="2">
    <path d="M1 12s4-8 11-8 11 8 11 8-4 8-11 8-11-8-11-8z"></path>
    <circle cx="12" cy="12" r="3"></circle>
  </symbol>

  <!-- Filter -->
  <symbol id="filter" viewBox="0 0 24 24" fill="none" stroke="currentColor" stroke-width="2">
    <polygon points="22,3 2,3 10,12.46 10,19 14,21 14,12.46 22,3"></polygon>
  </symbol>

  <!-- Calendar -->
  <symbol id="calendar" viewBox="0 0 24 24" fill="none" stroke="currentColor" stroke-width="2">
    <rect x="3" y="4" width="18" height="18" rx="2" ry="2"></rect>
    <line x1="16" y1="2" x2="16" y2="6"></line>
    <line x1="8" y1="2" x2="8" y2="6"></line>
    <line x1="3" y1="10" x2="21" y2="10"></line>
  </symbol>

  <!-- User -->
  <symbol id="user" viewBox="0 0 24 24" fill="none" stroke="currentColor" stroke-width="2">
    <path d="M20 21v-2a4 4 0 0 0-4-4H8a4 4 0 0 0-4 4v2"></path>
    <circle cx="12" cy="7" r="4"></circle>
  </symbol>

  <!-- Home -->
  <symbol id="home" viewBox="0 0 24 24" fill="none" stroke="currentColor" stroke-width="2">
    <path d="M3 9l9-7 9 7v11a2 2 0 0 1-2 2H5a2 2 0 0 1-2-2z"></path>
    <polyline points="9,22 9,12 15,12 15,22"></polyline>
  </symbol>

  <!-- Bell -->
  <symbol id="bell" viewBox="0 0 24 24" fill="none" stroke="currentColor" stroke-width="2">
    <path d="M6 8a6 6 0 0 1 12 0c0 7 3 9 3 9H3s3-2 3-9"></path>
    <path d="M13.73 21a2 2 0 0 1-3.46 0"></path>
  </symbol>

  <!-- Dollar Sign -->
  <symbol id="dollar-sign" viewBox="0 0 24 24" fill="none" stroke="currentColor" stroke-width="2">
    <line x1="12" y1="1" x2="12" y2="23"></line>
    <path d="M17 5H9.5a3.5 3.5 0 0 0 0 7h5a3.5 3.5 0 0 1 0 7H6"></path>
  </symbol>

  <!-- Percent -->
  <symbol id="percent" viewBox="0 0 24 24" fill="none" stroke="currentColor" stroke-width="2">
    <line x1="19" y1="5" x2="5" y2="19"></line>
    <circle cx="6.5" cy="6.5" r="2.5"></circle>
    <circle cx="17.5" cy="17.5" r="2.5"></circle>
  </symbol>

  <!-- Maximize -->
  <symbol id="maximize" viewBox="0 0 24 24" fill="none" stroke="currentColor" stroke-width="2">
    <path d="M8 3H5a2 2 0 0 0-2 2v3m18 0V5a2 2 0 0 0-2-2h-3m0 18h3a2 2 0 0 0 2-2v-3M3 16v3a2 2 0 0 0 2 2h3"></path>
  </symbol>

  <!-- Sun -->
  <symbol id="sun" viewBox="0 0 24 24" fill="none" stroke="currentColor" stroke-width="2">
    <circle cx="12" cy="12" r="5"></circle>
    <line x1="12" y1="1" x2="12" y2="3"></line>
    <line x1="12" y1="21" x2="12" y2="23"></line>
    <line x1="4.22" y1="4.22" x2="5.64" y2="5.64"></line>
    <line x1="18.36" y1="18.36" x2="19.78" y2="19.78"></line>
    <line x1="1" y1="12" x2="3" y2="12"></line>
    <line x1="21" y1="12" x2="23" y2="12"></line>
    <line x1="4.22" y1="19.78" x2="5.64" y2="18.36"></line>
    <line x1="18.36" y1="5.64" x2="19.78" y2="4.22"></line>
  </symbol>

  <!-- Moon -->
  <symbol id="moon" viewBox="0 0 24 24" fill="none" stroke="currentColor" stroke-width="2">
    <path d="M21 12.79A9 9 0 1 1 11.21 3 7 7 0 0 0 21 12.79z"></path>
  </symbol>

  <!-- Logout -->
  <symbol id="logout" viewBox="0 0 24 24" fill="none" stroke="currentColor" stroke-width="2">
    <path d="M9 21H5a2 2 0 0 1-2-2V5a2 2 0 0 1 2-2h4"></path>
    <polyline points="16,17 21,12 16,7"></polyline>
    <line x1="21" y1="12" x2="9" y2="12"></line>
  </symbol>

  <!-- Check Circle -->
  <symbol id="check-circle" viewBox="0 0 24 24" fill="none" stroke="currentColor" stroke-width="2">
    <path d="M22 11.08V12a10 10 0 1 1-5.93-9.14"></path>
    <polyline points="22,4 12,14.01 9,11.01"></polyline>
  </symbol>

  <!-- Info Circle -->
  <symbol id="info-circle" viewBox="0 0 24 24" fill="none" stroke="currentColor" stroke-width="2">
    <circle cx="12" cy="12" r="10"></circle>
    <line x1="12" y1="16" x2="12" y2="12"></line>
    <line x1="12" y1="8" x2="12.01" y2="8"></line>
  </symbol>

  <!-- Alert Triangle -->
  <symbol id="alert-triangle" viewBox="0 0 24 24" fill="none" stroke="currentColor" stroke-width="2">
    <path d="M10.29 3.86L1.82 18a2 2 0 0 0 1.71 3h16.94a2 2 0 0 0 1.71-3L13.71 3.86a2 2 0 0 0-3.42 0z"></path>
    <line x1="12" y1="9" x2="12" y2="13"></line>
    <line x1="12" y1="17" x2="12.01" y2="17"></line>
  </symbol>

  <!-- Newspaper -->
  <symbol id="newspaper" viewBox="0 0 24 24" fill="none" stroke="currentColor" stroke-width="2">
    <path d="M4 22h16a2 2 0 0 0 2-2V4a2 2 0 0 0-2-2H8a2 2 0 0 0-2 2v16a2 2 0 0 1-2 2Zm0 0a2 2 0 0 1-2-2v-9c0-1.1.9-2 2-2h2"></path>
    <path d="M18 14h-8"></path>
    <path d="M15 18h-5"></path>
    <path d="M10 6h8v4h-8V6z"></path>
  </symbol>

  <!-- Twitter -->
  <symbol id="twitter" viewBox="0 0 24 24" fill="currentColor">
    <path d="M23.953 4.57a10 10 0 01-2.825.775 4.958 4.958 0 002.163-2.723c-.951.555-2.005.959-3.127 1.184a4.92 4.92 0 00-8.384 4.482C7.69 8.095 4.067 6.13 1.64 3.162a4.822 4.822 0 00-.666 2.475c0 1.71.87 3.213 2.188 4.096a4.904 4.904 0 01-2.228-.616v.06a4.923 4.923 0 003.946 4.827 4.996 4.996 0 01-2.212.085 4.936 4.936 0 004.604 3.417 9.867 9.867 0 01-6.102 2.105c-.39 0-.779-.023-1.17-.067a13.995 13.995 0 007.557 2.209c9.053 0 13.998-7.496 13.998-13.985 0-.21 0-.42-.015-.63A9.935 9.935 0 0024 4.59z"/>
  </symbol>

  <!-- LinkedIn -->
  <symbol id="linkedin" viewBox="0 0 24 24" fill="currentColor">
    <path d="M20.447 20.452h-3.554v-5.569c0-1.328-.027-3.037-1.852-3.037-1.853 0-2.136 1.445-2.136 2.939v5.667H9.351V9h3.414v1.561h.046c.477-.9 1.637-1.85 3.37-1.85 3.601 0 4.267 2.37 4.267 5.455v6.286zM5.337 7.433c-1.144 0-2.063-.926-2.063-2.065 0-1.138.92-2.063 2.063-2.063 1.14 0 2.064.925 2.064 2.063 0 1.139-.925 2.065-2.064 2.065zm1.782 13.019H3.555V9h3.564v11.452zM22.225 0H1.771C.792 0 0 .774 0 1.729v20.542C0 23.227.792 24 1.771 24h20.451C23.2 24 24 23.227 24 22.271V1.729C24 .774 23.2 0 22.222 0h.003z"/>
  </symbol>

  <!-- GitHub -->
  <symbol id="github" viewBox="0 0 24 24" fill="currentColor">
    <path d="M12 .297c-6.63 0-12 5.373-12 12 0 5.303 3.438 9.8 8.205 11.385.6.113.82-.258.82-.577 0-.285-.01-1.04-.015-2.04-3.338.724-4.042-1.61-4.042-1.61C4.422 18.07 3.633 17.7 3.633 17.7c-1.087-.744.084-.729.084-.729 1.205.084 1.838 1.236 1.838 1.236 1.07 1.835 2.809 1.305 3.495.998.108-.776.417-1.305.76-1.605-2.665-.3-5.466-1.332-5.466-5.93 0-1.31.465-2.38 1.235-3.22-.135-.303-.54-1.523.105-3.176 0 0 1.005-.322 3.3 1.23.96-.267 1.98-.399 3-.405 1.02.006 2.04.138 3 .405 2.28-1.552 3.285-1.23 3.285-1.23.645 1.653.24 2.873.12 3.176.765.84 1.23 1.91 1.23 3.22 0 4.61-2.805 5.625-5.475 5.92.42.36.81 1.096.81 2.22 0 1.606-.015 2.896-.015 3.286 0 .315.21.69.825.57C20.565 22.092 24 17.592 24 12.297c0-6.627-5.373-12-12-12"/>
  </symbol>
</svg>